<svg width="140" height="32" viewBox="0 0 140 32" fill="none" xmlns="http://www.w3.org/2000/svg">
<path d="M30.9779 21.6202C28.4995 24.5952 25.0086 26.5466 21.1781 27.0984C17.3475 27.6502 13.4485 26.7634 10.2325 24.6087C7.01644 22.4541 4.71101 19.1842 3.76053 15.4293C2.81005 11.6743 3.2818 7.70017 5.08485 4.27271C2.73474 6.4677 1.09952 9.32024 0.392213 12.4587C-0.315089 15.5972 -0.0616735 18.8761 1.11942 21.8684C2.30051 24.8607 4.35452 27.4276 7.01393 29.2347C9.67333 31.0418 12.8148 32.0054 16.0292 32C16.3104 32 16.5896 31.9929 16.8669 31.9786C16.9545 31.9735 17.0406 31.9646 17.1275 31.9587C17.299 31.9469 17.4705 31.9352 17.6427 31.919C20.6012 31.6097 23.4154 30.4826 25.7705 28.6638C28.1256 26.845 29.9286 24.4062 30.9779 21.6202" fill="#223671"/>
<path d="M19.2092 25.0188C18.6946 25.3039 18.1656 25.5621 17.6244 25.7924H17.6538C17.6214 25.802 17.589 25.8153 17.5544 25.827C18.0359 25.8705 18.5224 25.8956 19.0171 25.8956C21.3792 25.8975 23.7123 25.3753 25.8486 24.3666C27.9849 23.3578 29.8712 21.8876 31.3718 20.0617C31.4056 20.0264 31.5315 19.8805 31.5315 19.8805C31.8509 18.5662 32.0081 17.2176 31.9997 15.865C31.999 14.9895 31.9269 14.1155 31.784 13.2517C31.7641 13.1331 31.7435 13.0152 31.7207 12.898C31.7023 12.7963 31.6809 12.6969 31.6596 12.5967C30.9856 9.46065 29.3856 6.59977 27.0671 4.38525C28.4739 8.19395 28.4529 12.3841 27.0079 16.1785C25.5629 19.9728 22.792 23.1138 19.2092 25.0188" fill="#223671"/>
<path d="M16.0264 2.50361C18.1421 2.50203 20.2293 2.99213 22.1236 3.93531C24.0179 4.87848 25.6676 6.24898 26.9427 7.93886C26.1938 5.63135 24.7342 3.62041 22.7731 2.19427C20.8121 0.768128 18.4504 0 16.0264 0C13.6024 0 11.2406 0.768128 9.27957 2.19427C7.31855 3.62041 5.85896 5.63135 5.10999 7.93886C6.3851 6.24898 8.03479 4.87848 9.9291 3.93531C11.8234 2.99213 13.9106 2.50203 16.0264 2.50361" fill="#F26526"/>
<path d="M45.4028 6.60317V9.8258C45.4751 9.82785 45.5472 9.83375 45.6189 9.84352C45.6902 9.85311 45.7621 9.85874 45.8341 9.86036C46.6649 9.86036 47.0799 9.5452 47.0794 8.91492V7.61862C47.0983 7.46425 47.0749 7.3076 47.0116 7.16564C46.9483 7.02369 46.8476 6.9018 46.7204 6.81317C46.3037 6.64041 45.8523 6.56848 45.4028 6.60317M40 4.08146H47.0794C48.2142 4.04755 49.3406 4.2879 50.3637 4.78232C50.8387 4.98129 51.2445 5.31677 51.5304 5.74664C51.8163 6.17651 51.9694 6.68162 51.9706 7.1986V9.12491C51.9706 11.2036 50.4334 12.243 47.359 12.243H45.4495C45.4495 12.3006 45.4416 12.398 45.4266 12.5309C45.4116 12.6638 45.4028 12.756 45.4028 12.803C45.4032 12.9403 45.4494 13.0736 45.5339 13.1815C45.6185 13.2894 45.7365 13.3657 45.8693 13.3984V15.4647H40V13.3984C40.1749 13.3557 40.3283 13.2503 40.4313 13.102C40.5343 12.9536 40.5797 12.7726 40.5592 12.593V7.02317C40.5785 6.85177 40.5311 6.67952 40.4269 6.54244C40.3226 6.40536 40.1697 6.3141 40 6.28775V4.08146Z" fill="#223671"/>
<path d="M53.0881 4.08136H58.7705V6.07765C58.6174 6.21788 58.4996 6.3926 58.4268 6.58745C58.354 6.7823 58.3282 6.9917 58.3516 7.19851V8.45938H60.0272V6.74309C60.0232 6.60463 59.9822 6.4698 59.9085 6.35273C59.8348 6.23567 59.7311 6.14066 59.6083 6.07765V4.08136H65.4291V6.07765C65.2582 6.2023 65.1187 6.36535 65.0216 6.55381C64.9245 6.74226 64.8726 6.9509 64.87 7.16308V12.102C64.87 12.8256 65.0564 13.2926 65.4291 13.5029V15.4646H59.6083V13.5029C59.887 13.3629 60.0267 13.048 60.0272 12.5583V10.6666H58.3516V12.2429C58.3209 12.4711 58.3427 12.7033 58.4153 12.9218C58.4879 13.1402 58.6094 13.339 58.7705 13.5029V15.4646H53.0881V13.5029C53.2724 13.3919 53.4223 13.2315 53.521 13.0398C53.6198 12.8482 53.6635 12.6327 53.6473 12.4174V7.30396C53.6767 7.06755 53.64 6.82758 53.5412 6.61097C53.4424 6.39436 53.2855 6.20968 53.0881 6.07765V4.08136Z" fill="#223671"/>
<path d="M67.0845 4.08136H78.4959V8.03673H74.0245V7.30131C74.0245 6.83406 73.6053 6.60042 72.7668 6.60042H72.3479V8.66672H75.4215V10.8721H72.3479V13.0784C72.414 13.0803 72.48 13.0862 72.5454 13.0961C72.6039 13.1051 72.6628 13.1107 72.7218 13.113C73.5914 13.113 74.0262 12.8215 74.0262 12.2384V11.4038H78.4977V15.4664H67.0845V13.4001C67.2145 13.3575 67.3266 13.2723 67.4026 13.158C67.4786 13.0437 67.5141 12.9071 67.5034 12.7701V7.02485C67.5157 6.84488 67.4839 6.66461 67.4109 6.49981C67.3379 6.335 67.2258 6.19067 67.0845 6.07941V4.08136Z" fill="#223671"/>
<path d="M79.8691 4.08136H84.9923L87.6011 9.19483V6.81307C87.6092 6.6683 87.5789 6.52399 87.5133 6.39481C87.4478 6.26562 87.3494 6.15619 87.2281 6.07765V4.08136H92.0726V6.07765C91.8834 6.19222 91.7304 6.35835 91.6315 6.55675C91.5325 6.75516 91.4916 6.97767 91.5134 7.19851V15.4646H86.9485L84.0143 10.3511V12.102C84.0143 12.7559 84.2006 13.1529 84.5734 13.2929V15.4646H79.8691V13.3983C80.0429 13.331 80.1907 13.2099 80.2912 13.0525C80.3918 12.8951 80.4398 12.7095 80.4283 12.5229V6.91764C80.4359 6.73613 80.3858 6.5569 80.2853 6.4059C80.1847 6.25489 80.039 6.13993 79.8691 6.07765V4.08136Z" fill="#223671"/>
<path d="M93.6794 4.08136H99.6414V6.07765C99.4522 6.19222 99.2992 6.35835 99.2003 6.55675C99.1013 6.75516 99.0604 6.97767 99.0822 7.19851V12.2429C99.0625 12.5131 99.0982 12.7845 99.1872 13.0403C99.3048 13.2249 99.4595 13.3828 99.6414 13.5038V15.4655H93.6794V13.5038C93.8428 13.4085 93.9769 13.2701 94.0673 13.1035C94.1576 12.937 94.2007 12.7487 94.1918 12.5592V6.88841C94.2023 6.71695 94.1583 6.5466 94.0662 6.40187C93.9741 6.25713 93.8387 6.14548 93.6794 6.08298V4.08136Z" fill="#223671"/>
<path d="M101.294 4.08136H106.976V6.18308C106.817 6.34106 106.697 6.53389 106.624 6.74647C106.551 6.95905 106.528 7.18562 106.557 7.4085V8.66937L107.815 7.19851C108.157 6.83941 108.356 6.3663 108.373 5.86941V4.08312H113.497V6.18487C113.18 6.29318 112.898 6.48684 112.682 6.74485C112.434 7.02484 112.193 7.31666 111.96 7.62028L110.609 9.3038L112.659 12.4564C112.877 12.7949 113.024 13.0108 113.1 13.1041C113.274 13.31 113.512 13.4516 113.775 13.5064V15.4681H108.372V14.0327C108.343 13.55 108.2 13.0813 107.953 12.6664L106.556 10.6701V12.2464C106.525 12.4746 106.547 12.7069 106.619 12.9253C106.692 13.1437 106.814 13.3425 106.975 13.5064V15.4681H101.292V13.5064C101.666 13.3883 101.852 12.9916 101.851 12.3164V7.51396C101.851 6.76671 101.665 6.32368 101.292 6.18487L101.294 4.08136Z" fill="#223671"/>
<path d="M121.112 10.2457L120.417 6.93624L119.719 10.2457H121.112ZM124.14 4.08136L126.236 12.3474C126.281 12.5902 126.38 12.8199 126.525 13.0192C126.67 13.2186 126.857 13.3827 127.074 13.4993V15.4611H121.112V13.4993C121.284 13.3876 121.423 13.2308 121.513 13.0458C121.604 12.8608 121.642 12.6546 121.625 12.4493H119.296C119.28 12.6596 119.324 12.8701 119.423 13.0561C119.522 13.2421 119.672 13.3959 119.855 13.4993V15.4611H114.685V13.3948C115.046 13.1061 115.293 12.6979 115.383 12.2429L117.339 4.08136H124.14Z" fill="#223671"/>
<path d="M134.038 10.2457L133.343 6.93624L132.644 10.2457H134.038ZM137.066 4.08136L139.162 12.3474C139.207 12.5902 139.305 12.8199 139.45 13.0192C139.595 13.2186 139.783 13.3827 140 13.4993V15.4611H134.038V13.4993C134.21 13.3876 134.349 13.2308 134.439 13.0458C134.53 12.8608 134.568 12.6546 134.55 12.4493H132.221C132.205 12.6597 132.249 12.8702 132.348 13.0562C132.448 13.2421 132.597 13.3959 132.78 13.4993V15.4611H127.61V13.3948C127.971 13.1058 128.219 12.6977 128.309 12.2429L130.265 4.08136H137.066Z" fill="#223671"/>
<path d="M43.6021 26.4331V23.6845H40.5848V26.4331H40V20.5708H40.5848V23.1522H43.6021V20.5708H44.1833V26.4331H43.6021Z" fill="#223671"/>
<path d="M45.145 26.4343H45.6956V22.1037H45.145V26.4343ZM45.145 21.5739H45.6956V20.572H45.145V21.5739Z" fill="#223671"/>
<path d="M59.2866 22.6029V26.4344H58.736V22.6029H57.8281V22.1038H58.736V20.5721H59.2866V22.1038H60.318V22.6029H59.2866Z" fill="#223671"/>
<path d="M138.968 22.603V26.4346H138.418V22.603H137.51V22.1039H138.418V20.5723H138.968V22.1039H140V22.603H138.968Z" fill="#223671"/>
<path d="M131.836 26.4332L130.421 24.7245L129.723 25.6096V26.4332H129.173V20.5709H129.723V24.7503H129.738L131.752 22.105H132.46L130.758 24.2906L132.548 26.4356L131.836 26.4332Z" fill="#223671"/>
<path d="M113.942 25.1557C113.784 25.4988 113.548 25.7992 113.252 26.0324C112.956 26.2656 112.609 26.4248 112.24 26.4968C111.871 26.5688 111.49 26.5517 111.129 26.4467C110.767 26.3418 110.436 26.1521 110.162 25.8933C109.946 25.6834 109.774 25.4319 109.657 25.1539C109.54 24.8758 109.479 24.5769 109.479 24.2749C109.479 23.9729 109.54 23.674 109.657 23.396C109.774 23.118 109.946 22.8665 110.162 22.6566C110.377 22.4425 110.632 22.2737 110.912 22.1601C111.192 22.0466 111.492 21.9905 111.795 21.9953C112.252 21.9901 112.7 22.1205 113.084 22.3702C113.472 22.6185 113.772 22.9838 113.941 23.4138H113.329C113.194 23.127 112.977 22.8867 112.707 22.7231C112.436 22.5595 112.123 22.4799 111.808 22.4944C111.575 22.4895 111.343 22.5322 111.127 22.6199C110.911 22.7076 110.715 22.8385 110.55 23.0045C110.381 23.1657 110.246 23.3608 110.156 23.5771C110.066 23.7934 110.022 24.0263 110.026 24.2608C110.024 24.4962 110.068 24.7298 110.157 24.9477C110.246 25.1657 110.377 25.3635 110.543 25.5297C110.709 25.6958 110.906 25.8269 111.124 25.9151C111.341 26.0033 111.574 26.0468 111.808 26.0432C112.12 26.0641 112.431 25.9915 112.702 25.8346C112.972 25.6777 113.191 25.4436 113.329 25.1619L113.942 25.1557Z" fill="#223671"/>
<path d="M117.992 23.0183C117.835 22.8479 117.644 22.7126 117.432 22.6213C117.219 22.53 116.99 22.4848 116.76 22.4885C116.525 22.4812 116.291 22.5228 116.073 22.6106C115.855 22.6984 115.658 22.8305 115.493 22.9986C115.328 23.1669 115.199 23.367 115.113 23.587C115.027 23.8069 114.986 24.0421 114.993 24.2783C114.986 24.5119 115.028 24.7444 115.115 24.9614C115.201 25.1783 115.331 25.3751 115.497 25.5395C115.664 25.7025 115.861 25.8301 116.078 25.9146C116.295 25.9991 116.527 26.0388 116.76 26.0312C116.99 26.0353 117.218 25.991 117.43 25.9013C117.643 25.8115 117.834 25.6783 117.992 25.51C118.153 25.3463 118.28 25.1518 118.365 24.9379C118.45 24.724 118.492 24.4951 118.487 24.2647C118.491 24.0334 118.449 23.8036 118.364 23.5886C118.279 23.3736 118.152 23.1776 117.992 23.0121M118.453 26.4258V25.6649H118.437C118.257 25.9437 118.008 26.17 117.713 26.3211C117.419 26.4722 117.09 26.5426 116.76 26.5253C116.456 26.5326 116.154 26.4784 115.872 26.3661C115.59 26.2537 115.333 26.0855 115.116 25.8714C114.902 25.659 114.732 25.4059 114.616 25.1268C114.501 24.8477 114.441 24.5483 114.442 24.246C114.443 23.9437 114.503 23.6445 114.62 23.366C114.737 23.0874 114.909 22.8351 115.124 22.6237C115.34 22.4129 115.597 22.2474 115.877 22.1366C116.158 22.0259 116.458 21.972 116.76 21.9783C117.091 21.9587 117.422 22.0292 117.717 22.1823C118.012 22.3354 118.261 22.5656 118.437 22.8486H118.453V22.0902H119.007V26.4209L118.453 26.4258Z" fill="#223671"/>
<path d="M125.662 26.4318V23.9229C125.681 23.5681 125.588 23.2164 125.397 22.9174C125.286 22.7832 125.148 22.6751 124.991 22.6009C124.834 22.5267 124.663 22.4883 124.49 22.4883C124.317 22.4883 124.146 22.5267 123.989 22.6009C123.832 22.6751 123.694 22.7832 123.583 22.9174C123.39 23.2157 123.296 23.5676 123.314 23.9229V26.4318H122.764V23.9229C122.782 23.5675 122.688 23.2155 122.494 22.9174C122.384 22.7832 122.246 22.6751 122.089 22.6009C121.933 22.5268 121.762 22.4883 121.588 22.4883C121.415 22.4883 121.244 22.5268 121.088 22.6009C120.931 22.6751 120.793 22.7832 120.682 22.9174C120.488 23.2153 120.394 23.5674 120.412 23.9229V26.4318H119.863V22.1011H120.412V22.6002C120.535 22.4008 120.71 22.2385 120.917 22.1303C121.124 22.0222 121.357 21.9722 121.59 21.9856C121.885 21.9703 122.179 22.0405 122.435 22.1878C122.692 22.3351 122.901 22.5533 123.038 22.8166C123.176 22.5893 123.365 22.3971 123.589 22.2547C123.813 22.1122 124.066 22.0234 124.33 21.995C124.594 21.9666 124.86 21.9994 125.109 22.0909C125.358 22.1824 125.583 22.3302 125.766 22.5228C126.077 22.8938 126.238 23.3685 126.216 23.8529V26.4343L125.662 26.4318Z" fill="#223671"/>
<path d="M106.219 26.4346H106.77V22.1039H106.219V26.4346ZM106.219 21.5741H106.77V20.5723H106.219V21.5741Z" fill="#223671"/>
<path d="M63.9763 26.4321V24.0498C63.9785 23.8324 63.9471 23.6159 63.8833 23.4081C63.8271 23.2002 63.7169 23.011 63.5639 22.8599C63.3097 22.6212 62.9747 22.4885 62.6267 22.4885C62.2787 22.4885 61.9437 22.6212 61.6895 22.8599C61.5403 23.0072 61.4319 23.1911 61.375 23.3934C61.314 23.5924 61.2839 23.7997 61.2857 24.008V26.4321H60.7351V20.5698H61.2857V22.6595H61.3016C61.4442 22.4402 61.6423 22.2631 61.8756 22.1462C62.109 22.0293 62.369 21.9769 62.6292 21.9945C62.8926 21.9799 63.156 22.0245 63.4002 22.1248C63.6444 22.2252 63.8633 22.3788 64.0411 22.5747C64.3807 22.9884 64.5551 23.5142 64.5306 24.0498V26.4321H63.9763Z" fill="#223671"/>
<path d="M67.1979 26.9189H67.7827V27.9208H67.1979V26.9189ZM69.169 22.7395V26.4272H68.649V25.7524H68.6331C68.5133 26.0076 68.3116 26.2149 68.0605 26.3412C67.8104 26.47 67.5327 26.535 67.2517 26.5305C66.9713 26.5475 66.6908 26.4976 66.4332 26.3848C66.1757 26.272 65.9484 26.0995 65.77 25.8815C65.622 25.6854 65.5185 25.4593 65.4666 25.2189C65.4143 24.9766 65.3896 24.7292 65.3932 24.4813V22.1015H65.9438V24.4826C65.9182 24.8748 66.018 25.2651 66.2288 25.5963C66.3507 25.7478 66.5076 25.8672 66.6859 25.9441C66.8641 26.021 67.0584 26.0531 67.2517 26.0376C67.42 26.0424 67.5876 26.0139 67.7448 25.9536C67.9021 25.8933 68.0459 25.8023 68.1681 25.686C68.3404 25.5235 68.4669 25.3183 68.5352 25.091C68.5972 24.8629 68.6257 24.6268 68.6196 24.3904V22.1015H69.1702V22.2244L69.1886 22.2084C69.2321 22.1759 69.2687 22.1348 69.296 22.0877C69.3233 22.0406 69.3409 21.9884 69.3476 21.9343H69.1115V21.2373H69.7893V21.9576C69.7763 22.0668 69.7457 22.1731 69.6988 22.2724C69.6609 22.3512 69.6091 22.4224 69.5459 22.4825C69.4953 22.5316 69.4409 22.5764 69.3831 22.6165C69.3366 22.6485 69.2608 22.6903 69.1739 22.7395H69.169Z" fill="#223671"/>
<path d="M74.3297 25.1562C74.1722 25.4992 73.9357 25.7997 73.6398 26.0329C73.3439 26.2661 72.9971 26.4252 72.628 26.4973C72.2588 26.5693 71.8779 26.5521 71.5166 26.4472C71.1554 26.3423 70.8241 26.1526 70.5502 25.8938C70.3341 25.6839 70.1622 25.4324 70.0448 25.1544C69.9274 24.8763 69.8669 24.5774 69.8669 24.2754C69.8669 23.9734 69.9274 23.6745 70.0448 23.3965C70.1622 23.1185 70.3341 22.867 70.5502 22.6571C70.7646 22.443 71.0195 22.2742 71.2998 22.1606C71.5801 22.0471 71.8802 21.991 72.1824 21.9958C72.6396 21.9911 73.088 22.1215 73.472 22.3707C73.86 22.619 74.1598 22.9843 74.3285 23.4143H73.7168C73.5816 23.1276 73.3651 22.8873 73.0946 22.7238C72.824 22.5602 72.5113 22.4805 72.1959 22.4948C71.9628 22.4899 71.7311 22.5326 71.5149 22.6203C71.2987 22.708 71.1025 22.8389 70.9381 23.005C70.7685 23.1662 70.6344 23.3612 70.5442 23.5776C70.454 23.7939 70.4098 24.0268 70.4144 24.2613C70.4118 24.4967 70.4561 24.7303 70.5448 24.9482C70.6335 25.1662 70.7647 25.364 70.9307 25.5302C71.0968 25.6963 71.2943 25.8274 71.5116 25.9156C71.7289 26.0038 71.9616 26.0473 72.1959 26.0437C72.5077 26.0644 72.8187 25.9918 73.0894 25.8349C73.3601 25.678 73.5785 25.4439 73.7168 25.1624L74.3297 25.1562Z" fill="#223671"/>
<path d="M80.258 26.4321V24.0498C80.2602 23.8324 80.2288 23.6159 80.165 23.4081C80.1088 23.2002 79.9986 23.011 79.8457 22.8599C79.5916 22.6213 79.2568 22.4886 78.9091 22.4886C78.5613 22.4886 78.2265 22.6213 77.9724 22.8599C77.8225 23.0068 77.7136 23.1908 77.6568 23.3934C77.5958 23.5924 77.5657 23.7997 77.5675 24.008V26.4321H77.0168V20.5698H77.5675V22.6595H77.5834C77.7259 22.4402 77.9241 22.2631 78.1574 22.1462C78.3907 22.0293 78.6508 21.9769 78.9109 21.9945C79.1743 21.9799 79.4377 22.0245 79.6819 22.1248C79.9261 22.2252 80.145 22.3788 80.3228 22.5747C80.6624 22.9884 80.8368 23.5142 80.8123 24.0498V26.4321H80.258Z" fill="#223671"/>
<path d="M83.4024 21.5299L83.1442 21.0726L84.7103 20.2122L84.9648 20.6879L83.4024 21.5299ZM84.9795 23.0112C84.8265 22.8441 84.6403 22.7112 84.4328 22.6212C84.2254 22.5312 84.0015 22.4861 83.7755 22.4887C83.5447 22.4843 83.3157 22.5304 83.1045 22.6238C82.8932 22.7172 82.7046 22.8557 82.552 23.0296C82.231 23.3681 82.0553 23.8197 82.0626 24.2871C82.0603 24.5149 82.1031 24.7408 82.1883 24.9518C82.2736 25.1628 82.3997 25.3547 82.5593 25.5164C82.7133 25.6835 82.9004 25.8162 83.1086 25.906C83.3169 25.9958 83.5416 26.0406 83.7682 26.0376C83.9983 26.0423 84.2268 25.9971 84.4379 25.905C84.6491 25.8129 84.838 25.6762 84.9917 25.5041C85.3082 25.1612 85.4793 24.708 85.4689 24.2404C85.4718 24.0126 85.4293 23.7865 85.344 23.5754C85.2587 23.3643 85.1323 23.1725 84.9721 23.0112M85.3539 25.8643C85.1476 26.0765 84.9012 26.2452 84.6292 26.3606C84.3572 26.476 84.065 26.5359 83.7697 26.5366C83.4745 26.5372 83.182 26.4788 82.9095 26.3646C82.6369 26.2505 82.3898 26.0829 82.1825 25.8717C81.9687 25.6693 81.7989 25.4248 81.6838 25.1533C81.5686 24.8819 81.5105 24.5895 81.5132 24.2945C81.5087 23.9942 81.5643 23.696 81.6767 23.4176C81.7892 23.1393 81.9562 22.8865 82.1678 22.6743C82.3704 22.4546 82.6167 22.2802 82.8907 22.1622C83.1647 22.0443 83.4603 21.9855 83.7584 21.9896C84.2053 21.9896 84.6421 22.1229 85.0135 22.3725C85.3849 22.6222 85.674 22.9771 85.8444 23.3921C86.0148 23.8072 86.0587 24.2637 85.9705 24.7038C85.8823 25.1439 85.666 25.5478 85.349 25.8643" fill="#223671"/>
<path d="M90.0806 23.0184C89.9239 22.848 89.7332 22.7128 89.5208 22.6215C89.3085 22.5302 89.0795 22.4849 88.8485 22.4886C88.614 22.4812 88.3805 22.5227 88.1628 22.6105C87.945 22.6983 87.7477 22.8305 87.5834 22.9987C87.4183 23.167 87.2888 23.3672 87.2028 23.5871C87.1168 23.807 87.076 24.0422 87.0829 24.2784C87.0764 24.512 87.1177 24.7445 87.2042 24.9614C87.2907 25.1784 87.4206 25.3751 87.5858 25.5396C87.7526 25.7026 87.9503 25.8302 88.1673 25.9147C88.3842 25.9992 88.616 26.0389 88.8485 26.0313C89.0787 26.0354 89.3072 25.9912 89.5194 25.9014C89.7315 25.8117 89.9227 25.6784 90.0806 25.5101C90.2422 25.3465 90.3694 25.152 90.4547 24.9381C90.5401 24.7242 90.5818 24.4953 90.5774 24.2649C90.5811 24.0335 90.539 23.8036 90.4538 23.5886C90.3685 23.3736 90.2417 23.1777 90.0806 23.0122M90.5419 26.4259V25.665H90.526C90.3463 25.9438 90.0966 26.1702 89.8021 26.3212C89.5076 26.4723 89.1788 26.5427 88.8485 26.5255C88.545 26.5327 88.2431 26.4785 87.9608 26.3662C87.6785 26.2538 87.4216 26.0856 87.2053 25.8715C86.9911 25.6591 86.8211 25.406 86.7054 25.1269C86.5897 24.8477 86.5305 24.5482 86.5313 24.2458C86.5321 23.9435 86.5928 23.6443 86.71 23.3658C86.8272 23.0873 86.9985 22.8351 87.2139 22.6238C87.4303 22.413 87.6863 22.2474 87.9668 22.1366C88.2474 22.0258 88.5471 21.9721 88.8485 21.9784C89.1802 21.9588 89.5109 22.0293 89.8061 22.1824C90.1012 22.3356 90.3499 22.5657 90.526 22.8488H90.5419V22.0903H91.0962V26.421L90.5419 26.4259Z" fill="#223671"/>
<path d="M99.7832 26.4322V23.9233C99.8016 23.5684 99.7088 23.2167 99.5177 22.9177C99.4074 22.7835 99.2689 22.6755 99.1122 22.6013C98.9555 22.5271 98.7843 22.4886 98.6111 22.4886C98.4378 22.4886 98.2667 22.5271 98.11 22.6013C97.9532 22.6755 97.8147 22.7835 97.7044 22.9177C97.5115 23.2161 97.4173 23.568 97.4352 23.9233V26.4322H96.8847V23.9233C96.9032 23.5679 96.8089 23.2158 96.6155 22.9177C96.5053 22.7835 96.3669 22.6755 96.2103 22.6013C96.0536 22.5271 95.8826 22.4887 95.7094 22.4887C95.5363 22.4887 95.3652 22.5271 95.2086 22.6013C95.052 22.6755 94.9136 22.7835 94.8034 22.9177C94.6095 23.2157 94.5149 23.5678 94.533 23.9233V26.4322H93.9836V22.1015H94.533V22.6006C94.6563 22.4012 94.8308 22.2389 95.0381 22.1307C95.2455 22.0225 95.478 21.9725 95.7113 21.986C96.0064 21.9707 96.2997 22.0408 96.5563 22.1881C96.8129 22.3354 97.022 22.5537 97.1587 22.8169C97.2971 22.5897 97.4856 22.3975 97.7097 22.255C97.9337 22.1126 98.1873 22.0237 98.451 21.9953C98.7146 21.967 98.9812 21.9998 99.2303 22.0913C99.4793 22.1828 99.704 22.3306 99.8872 22.5232C100.198 22.8941 100.359 23.3688 100.337 23.8532V26.4346L99.7832 26.4322Z" fill="#223671"/>
<path d="M103.001 26.9187H103.586V27.9205H103.001V26.9187ZM104.499 23.0109C104.345 22.8439 104.159 22.7111 103.951 22.6211C103.744 22.5311 103.519 22.4859 103.293 22.4884C103.063 22.484 102.834 22.5301 102.622 22.6235C102.411 22.7169 102.222 22.8554 102.07 23.0293C101.749 23.368 101.573 23.8195 101.58 24.2868C101.577 24.5141 101.619 24.7397 101.703 24.9507C101.787 25.1616 101.911 25.3538 102.07 25.5161C102.227 25.6819 102.416 25.8136 102.626 25.9032C102.835 25.9928 103.061 26.0385 103.289 26.0373C103.516 26.0362 103.742 25.9883 103.95 25.8965C104.159 25.8048 104.347 25.6711 104.502 25.5038C104.819 25.1609 104.99 24.7077 104.979 24.2401C104.983 24.0129 104.942 23.7871 104.858 23.5761C104.774 23.3651 104.649 23.1729 104.49 23.0109M104.87 25.864C104.664 26.0762 104.418 26.2449 104.146 26.3603C103.874 26.4757 103.582 26.5356 103.286 26.5363C102.991 26.5369 102.699 26.4785 102.426 26.3643C102.154 26.2502 101.906 26.0826 101.699 25.8714C101.485 25.669 101.316 25.4245 101.2 25.153C101.085 24.8816 101.027 24.5892 101.03 24.2942C101.025 23.9939 101.081 23.6957 101.193 23.4174C101.306 23.139 101.473 22.8862 101.684 22.674C101.887 22.4543 102.133 22.2799 102.407 22.1619C102.681 22.044 102.977 21.9852 103.275 21.9893C103.722 21.9893 104.159 22.1226 104.53 22.3722C104.901 22.6219 105.191 22.9768 105.361 23.3918C105.531 23.8069 105.575 24.2634 105.487 24.7035C105.399 25.1436 105.183 25.5475 104.866 25.864" fill="#223671"/>
<path d="M135.973 20.7911L135.715 20.335L137.281 19.4684L137.536 19.9441L135.973 20.7911ZM135.681 21.3713L135.003 20.7948L134.31 21.3713H133.591L134.734 20.3879H135.254L136.382 21.3713H135.681ZM136.66 23.9699C136.598 23.5601 136.395 23.185 136.086 22.9103C135.779 22.6378 135.383 22.4875 134.973 22.4875C134.564 22.4875 134.168 22.6378 133.861 22.9103C133.552 23.1844 133.351 23.5601 133.292 23.9699H136.66ZM137.217 24.4616H133.292C133.302 24.6728 133.355 24.8797 133.447 25.0698C133.539 25.26 133.668 25.4294 133.827 25.568C134.132 25.8654 134.541 26.0317 134.966 26.0314C135.296 26.0341 135.62 25.9401 135.897 25.761C136.179 25.5858 136.395 25.3204 136.509 25.0074H137.094C136.942 25.4541 136.654 25.8412 136.27 26.1138C135.934 26.3545 135.538 26.4975 135.126 26.5269C134.715 26.5563 134.303 26.471 133.936 26.2804C133.569 26.0898 133.262 25.8013 133.048 25.4466C132.834 25.0919 132.721 24.6847 132.722 24.2699C132.718 23.9718 132.774 23.6759 132.886 23.4C132.999 23.1242 133.166 22.8739 133.377 22.6645C133.583 22.4489 133.832 22.2777 134.106 22.1612C134.381 22.0448 134.676 21.9855 134.974 21.987C135.272 21.9885 135.566 22.0507 135.84 22.1699C136.113 22.2891 136.359 22.4628 136.564 22.6804C136.776 22.8941 136.943 23.1481 137.056 23.4276C137.169 23.7071 137.225 24.0064 137.221 24.308L137.217 24.4616Z" fill="#223671"/>
<path d="M48.3126 26.92H48.8975V27.9218H48.3126V26.92ZM49.3098 21.3723L48.632 20.7958L47.9394 21.3723H47.22L48.3628 20.3889H48.8828L50.0097 21.3723H49.3098ZM50.2886 23.971C50.2269 23.5611 50.0238 23.186 49.7148 22.9114C49.4078 22.6389 49.0123 22.4885 48.6026 22.4885C48.193 22.4885 47.7974 22.6389 47.4904 22.9114C47.1815 23.1855 46.9798 23.5611 46.9214 23.971H50.2886ZM50.8466 24.4627H46.9214C46.9315 24.6737 46.984 24.8805 47.0757 25.0706C47.1674 25.2607 47.2964 25.4303 47.4549 25.569C47.7607 25.8665 48.1696 26.0326 48.5952 26.0324C48.9252 26.0349 49.2487 25.941 49.5264 25.762C49.8087 25.5869 50.0242 25.3215 50.1382 25.0085H50.723C50.5713 25.4552 50.2831 25.8423 49.8996 26.1148C49.5633 26.3556 49.1675 26.4985 48.7556 26.5279C48.3437 26.5573 47.9317 26.472 47.565 26.2815C47.1982 26.0909 46.8909 25.8023 46.6767 25.4476C46.4626 25.0929 46.35 24.6858 46.3513 24.2709C46.3471 23.9728 46.4029 23.6769 46.5154 23.4011C46.6279 23.1252 46.7947 22.875 47.0059 22.6655C47.2125 22.4509 47.4603 22.2805 47.7342 22.1646C48.0082 22.0487 48.3026 21.9898 48.5999 21.9912C48.8971 21.9927 49.1909 22.0547 49.4637 22.1733C49.7365 22.2919 49.9826 22.4648 50.1871 22.6815C50.3993 22.8949 50.567 23.1489 50.68 23.4284C50.7931 23.7079 50.8493 24.0074 50.8453 24.309L50.8466 24.4627Z" fill="#223671"/>
<path d="M54.7827 26.432V24.0509C54.7849 23.8335 54.7535 23.617 54.6897 23.4093C54.6338 23.2012 54.5236 23.0119 54.3703 22.861C54.1161 22.6224 53.7811 22.4896 53.4331 22.4896C53.0851 22.4896 52.7501 22.6224 52.4959 22.861C52.3462 23.008 52.2377 23.192 52.1814 23.3945C52.1204 23.5936 52.0903 23.8009 52.0921 24.0092V26.432H51.5415V22.1026H52.0921V22.6545H52.1068C52.2495 22.4351 52.4478 22.2577 52.6814 22.1408C52.9149 22.024 53.1752 21.9717 53.4356 21.9895C53.699 21.9753 53.9622 22.02 54.2064 22.1203C54.4505 22.2207 54.6695 22.3741 54.8475 22.5697C55.1862 22.9839 55.3605 23.5093 55.337 24.0448V26.4259L54.7827 26.432Z" fill="#223671"/>
</svg>
