<svg width="171" height="42" viewBox="0 0 171 42" fill="none" xmlns="http://www.w3.org/2000/svg">
<g clip-path="url(#clip0_1717_32607)">
<path d="M14.4901 16.379V14.7691C13.9377 14.6953 13.3777 14.6499 12.7989 14.6499C5.892 14.6386 0.273438 20.2628 0.273438 27.1829C0.273438 31.4261 2.38844 35.1813 5.62526 37.4533C3.53864 35.2173 2.2598 32.2074 2.2598 28.912C2.2598 22.094 7.72134 16.536 14.4901 16.379Z" fill="#25F4EE"/>
<path d="M14.793 34.6382C17.8728 34.6382 20.3927 32.1808 20.5043 29.1256L20.5138 1.81789H25.4986C25.3983 1.25603 25.3416 0.677147 25.3416 0.0869141H18.5369L18.5274 27.3946C18.4177 30.4499 15.8978 32.9073 12.8161 32.9073C11.8589 32.9073 10.9584 32.6689 10.1582 32.2451C11.1892 33.6905 12.8805 34.6382 14.793 34.6382Z" fill="#25F4EE"/>
<path d="M34.8132 11.0879V9.56877C32.91 9.56877 31.1431 9.00692 29.6543 8.03076C30.9785 9.54985 32.7719 10.6547 34.8132 11.0879Z" fill="#25F4EE"/>
<path d="M29.6546 8.03094C28.2017 6.36429 27.3277 4.19253 27.3277 1.81836H25.5078C25.9751 4.41387 27.5207 6.64238 29.6546 8.03094Z" fill="#FE2C55"/>
<path d="M12.8067 21.451C9.65313 21.451 7.08789 24.0181 7.08789 27.1755C7.08789 29.3756 8.33835 31.2901 10.1601 32.2473C9.47909 31.309 9.07425 30.1588 9.07425 28.9065C9.07425 25.7491 11.6395 23.182 14.795 23.182C15.3833 23.182 15.9527 23.2822 16.4862 23.4487V16.4908C15.9338 16.417 15.3739 16.3716 14.795 16.3716C14.6947 16.3716 14.602 16.381 14.4999 16.381V21.7196C13.9569 21.5513 13.3969 21.451 12.8067 21.451Z" fill="#FE2C55"/>
<path d="M34.8132 11.0879V16.3792C31.2813 16.3792 28.0085 15.2479 25.3411 13.3334V27.185C25.3411 34.0975 19.7225 39.7293 12.8081 39.7293C10.1407 39.7293 7.65872 38.8818 5.62695 37.4554C7.916 39.9128 11.1812 41.4584 14.7945 41.4584C21.7013 41.4584 27.3275 35.8342 27.3275 28.9141V15.0625C29.9949 16.977 33.2676 18.1083 36.7996 18.1083V11.2979C36.1091 11.2979 35.4469 11.226 34.8132 11.0879Z" fill="#FE2C55"/>
<path d="M25.3413 27.1828V13.3313C28.0087 15.2457 31.2814 16.377 34.8134 16.377V11.0876C32.7722 10.6544 30.9788 9.5515 29.6545 8.0324C27.5206 6.64195 25.9845 4.41533 25.4983 1.81982H20.5135L20.504 29.1257C20.3943 32.1809 17.8744 34.6383 14.7928 34.6383C12.8802 34.6383 11.1965 33.6905 10.1485 32.2546C8.32857 31.288 7.07622 29.3829 7.07622 27.1828C7.07622 24.0254 9.64146 21.4583 12.795 21.4583C13.3834 21.4583 13.9528 21.5586 14.4863 21.725V16.3865C7.72131 16.5359 2.25977 22.0939 2.25977 28.9138C2.25977 32.2092 3.5386 35.2096 5.62523 37.4551C7.65699 38.8815 10.1409 39.729 12.8064 39.729C19.7133 39.729 25.3413 34.0953 25.3413 27.1828Z" fill="black"/>
<path d="M43.5312 11.1045H64.8004L62.85 17.1979H57.3317V39.7194H50.4532V17.1979L43.5388 17.2074L43.5312 11.1045Z" fill="black"/>
<path d="M99.6523 11.1045H121.419L119.469 17.1979H113.464V39.7194H106.576V17.1979L99.6618 17.2074L99.6523 11.1045Z" fill="black"/>
<path d="M66.1055 20.208H72.9196V39.7197H66.1414L66.1055 20.208Z" fill="black"/>
<path d="M75.6325 11.0312H82.4467V24.3569L89.1965 17.7206H97.3254L88.7822 26.0122L98.3451 39.7162H90.8405L84.4576 30.2176L82.4353 32.1775V39.7143H75.623V11.0312H75.6325Z" fill="black"/>
<path d="M147.818 11.0312H154.633V24.3569L161.38 17.7206H169.509L160.966 26.0122L170.533 39.72H163.038L156.657 30.2214L154.634 32.1813V39.7181H147.82V11.0312H147.818Z" fill="black"/>
<path d="M69.5079 17.9794C71.4016 17.9794 72.9377 16.4414 72.9377 14.5459C72.9377 12.6503 71.4016 11.1123 69.5079 11.1123C67.6142 11.1123 66.0781 12.6503 66.0781 14.5459C66.0781 16.4433 67.6142 17.9794 69.5079 17.9794Z" fill="black"/>
<path d="M120.545 28.0397C120.545 21.9009 125.28 16.8669 131.303 16.3978C131.001 16.3694 130.586 16.3618 130.282 16.3618C123.835 16.3618 118.611 21.5888 118.611 28.0416C118.611 34.4926 123.835 39.7214 130.282 39.7214C130.584 39.7214 130.999 39.7025 131.303 39.6855C125.289 39.2125 120.545 34.1785 120.545 28.0397Z" fill="#25F4EE"/>
<path d="M133.953 16.3599C133.641 16.3599 133.227 16.3788 132.924 16.3958C138.938 16.865 143.673 21.899 143.673 28.0378C143.673 34.1766 138.938 39.2106 132.924 39.6797C133.227 39.7081 133.641 39.7157 133.953 39.7157C140.398 39.7157 145.623 34.4887 145.623 28.0359C145.623 21.5887 140.4 16.3599 133.953 16.3599Z" fill="#FE2C55"/>
<path d="M132.114 33.7188C128.977 33.7188 126.44 31.1781 126.44 28.0397C126.44 24.9012 128.979 22.3606 132.114 22.3606C135.248 22.3606 137.787 24.9012 137.787 28.0397C137.787 31.1781 135.241 33.7188 132.114 33.7188ZM132.114 16.3599C125.668 16.3599 120.445 21.5868 120.445 28.0397C120.445 34.4906 125.668 39.7195 132.114 39.7195C138.561 39.7195 143.784 34.4925 143.784 28.0397C143.784 21.5887 138.561 16.3599 132.114 16.3599Z" fill="black"/>
</g>
<defs>
<clipPath id="clip0_1717_32607">
<rect width="171" height="41.7402" fill="white"/>
</clipPath>
</defs>
</svg>
